# File created by Blade
# Date/Time:  Tue Apr 07 21:36:59 2015
# Frame Rate: 120.000 fps
#------------------------------------------------------
:FULLY-SPECIFIED
:DEGREES
467
root 9.079340 31.414897 9.155266 170.883484 -92.016466 -117.506638
Spine 5.710654 -4.562127 -2.717513
Head -46.549431 -2.107568 8.618298
LeftShoulder -16.846329 48.660639 6.603256
LeftArm 37.784977 20.774671 -59.420049
LeftForeArm 20.936826 -0.000000 -2.864566
LeftHand 2.739917 0.000000 -18.599753
LeftHandThumb1 -26.253704 0.000000 33.147579
RightShoulder -3.677381 -14.353814 -17.394536
RightArm -1.175091 -26.217387 77.805267
RightForeArm -20.678624 -0.000000 3.421709
RightHand 5.394268 -0.000000 11.493654
RightHandThumb1 -24.326973 -0.000000 -32.862282
LeftUpLeg -77.345820 -3.224283 5.151504
LeftLeg 28.873179 -0.000000 -0.000000
LeftFoot -9.981791 7.231385 -18.705556
LeftToeBase -7.343893 -0.000000 0.000000
RightUpLeg -79.042127 3.038804 -6.955229
RightLeg 28.577422 -0.000000 -0.000000
RightFoot -13.528595 -11.417292 8.556576
RightToeBase -5.919711 -0.000000 0.000000
468
root 9.132792 31.330472 9.146544 170.503933 -92.016287 -116.546036
Spine 5.969605 -4.460381 -2.750445
Head -47.299250 -2.146591 8.720287
LeftShoulder -18.048037 49.875165 5.871996
LeftArm 36.136449 20.539019 -60.546920
LeftForeArm 21.692511 -0.000000 -4.149824
LeftHand 2.718371 0.000000 -18.793380
LeftHandThumb1 -26.253704 0.000000 33.147579
RightShoulder -4.137381 -15.649685 -17.582611
RightArm -2.670311 -25.629750 78.609120
RightForeArm -20.922075 0.000000 1.843783
RightHand 5.282610 0.000000 11.388237
RightHandThumb1 -24.326973 -0.000000 -32.862282
LeftUpLeg -78.573793 -3.220807 5.267054
LeftLeg 29.939925 -0.000000 -0.000000
LeftFoot -10.303526 7.384765 -18.454166
LeftToeBase -7.704329 -0.000000 0.000000
RightUpLeg -80.224199 2.854697 -6.747240
RightLeg 29.588795 -0.000000 -0.000000
RightFoot -13.834109 -11.581276 8.506816
RightToeBase -6.532806 -0.000000 0.000000
469
root 9.189700 31.244139 9.139386 170.742592 -92.015029 -116.212618
Spine 6.202461 -4.374841 -2.750853
Head -47.994328 -2.172608 8.826182
LeftShoulder -19.244958 51.093254 5.347420
LeftArm 34.643313 20.096461 -61.969096
LeftForeArm 22.492544 -0.000000 -5.398653
LeftHand 2.656011 0.000000 -19.443577
LeftHandThumb1 -26.253704 0.000000 33.147579
RightShoulder -4.462744 -16.862143 -17.956939
RightArm -4.177901 -24.857928 79.543685
RightForeArm -20.889568 -0.000000 0.348286
RightHand 5.623615 -0.000000 12.001682
RightHandThumb1 -24.326973 -0.000000 -32.862282
LeftUpLeg -79.798516 -3.212581 5.389012
LeftLeg 31.002534 -0.000000 -0.000000
LeftFoot -10.626223 7.509529 -18.229434
LeftToeBase -7.861002 -0.000000 0.000000
RightUpLeg -81.380054 2.675448 -6.534289
RightLeg 30.549106 -0.000000 -0.000000
RightFoot -14.138051 -11.762982 8.453580
RightToeBase -6.442483 -0.000000 0.000000
470
root 9.244616 31.153431 9.131041 171.200241 -92.036442 -116.144169
Spine 6.429511 -4.259171 -2.746163
Head -48.614248 -2.240245 8.905380
LeftShoulder -20.315097 52.293467 4.907457
LeftArm 32.969526 19.146909 -63.577746
LeftForeArm 23.260638 -0.000000 -6.158625
LeftHand 2.488202 0.000000 -19.901185
LeftHandThumb1 -26.253704 0.000000 33.147579
RightShoulder -4.745448 -18.188007 -18.296694
RightArm -5.542935 -24.153028 80.452958
RightForeArm -20.677727 -0.000000 -0.931200
RightHand 5.185203 0.000000 12.708248
RightHandThumb1 -24.326973 -0.000000 -32.862282
LeftUpLeg -80.972630 -3.220103 5.486713
LeftLeg 32.050753 -0.000000 -0.000000
LeftFoot -10.932366 7.611755 -17.947721
LeftToeBase -8.237676 -0.000000 0.000000
RightUpLeg -82.486363 2.496373 -6.339015
RightLeg 31.523688 -0.000000 -0.000000
RightFoot -14.427027 -11.826949 8.358006
RightToeBase -6.478753 -0.000000 0.000000
471
root 9.297927 31.058172 9.120822 171.482534 -92.000848 -116.004072
Spine 6.725576 -4.076553 -2.733309
Head -49.182896 -2.340932 8.948402
LeftShoulder -21.246020 53.453739 4.634468
LeftArm 31.351777 18.134406 -65.198374
LeftForeArm 23.670103 -0.000000 -6.712270
LeftHand 2.310347 0.000000 -19.939268
LeftHandThumb1 -26.253704 0.000000 33.147579
RightShoulder -4.914241 -19.390796 -18.773133
RightArm -6.971975 -23.293924 81.469123
RightForeArm -20.215232 -0.000000 -2.033921
RightHand 4.989588 -0.000000 13.310315
RightHandThumb1 -24.326973 -0.000000 -32.862282
LeftUpLeg -82.048692 -3.162380 5.571449
LeftLeg 33.154323 -0.000000 -0.000000
LeftFoot -11.338209 7.644950 -17.761508
LeftToeBase -8.284099 -0.000000 0.000000
RightUpLeg -83.493375 2.409133 -6.180681
RightLeg 32.517661 -0.000000 -0.000000
RightFoot -14.776858 -11.699521 8.338663
RightToeBase -6.407689 -0.000000 0.000000
472
root 9.350346 30.965045 9.109114 173.363946 -92.020940 -117.482083
Spine 7.010145 -3.944296 -2.652398
Head -49.713715 -2.497058 8.976412
LeftShoulder -22.200233 54.637202 4.350982
LeftArm 29.839940 17.268485 -66.593486
LeftForeArm 23.810196 -0.000000 -6.801718
LeftHand 2.360483 -0.000000 -20.349371
LeftHandThumb1 -26.253704 0.000000 33.147579
RightShoulder -5.023764 -20.670243 -19.308330
RightArm -8.207526 -22.121496 82.422576
RightForeArm -20.284272 -0.000000 -2.889225
RightHand 4.892856 0.000000 13.697368
RightHandThumb1 -24.326973 -0.000000 -32.862282
LeftUpLeg -83.078799 -3.144334 5.675444
LeftLeg 34.186691 -0.000000 -0.000000
LeftFoot -11.712738 7.639392 -17.662414
LeftToeBase -8.316260 -0.000000 0.000000
RightUpLeg -84.460445 2.280587 -5.986579
RightLeg 33.505688 -0.000000 -0.000000
RightFoot -15.156968 -11.505422 8.243166
RightToeBase -6.352114 -0.000000 0.000000
473
root 9.399826 30.868961 9.096350 174.720292 -91.984904 -118.521962
Spine 7.336164 -3.727692 -2.579629
Head -50.219845 -2.670395 8.981802
LeftShoulder -23.051905 55.882524 4.149675
LeftArm 28.478072 15.974177 -68.126634
LeftForeArm 24.162589 -0.000000 -6.774590
LeftHand 2.702626 -0.000000 -20.225988
LeftHandThumb1 -26.253704 0.000000 33.147579
RightShoulder -5.120408 -21.840047 -19.918740
RightArm -9.436544 -21.139218 83.435413
RightForeArm -20.188640 -0.000000 -3.520930
RightHand 4.798739 -0.000000 13.754396
RightHandThumb1 -24.326973 -0.000000 -32.862282
LeftUpLeg -84.006504 -3.055645 5.739188
LeftLeg 35.229812 -0.000000 -0.000000
LeftFoot -12.117508 7.555240 -17.581291
LeftToeBase -8.346167 -0.000000 0.000000
RightUpLeg -85.343123 2.249207 -5.858703
RightLeg 34.479238 -0.000000 -0.000000
RightFoot -15.492124 -11.321398 8.185771
RightToeBase -6.016831 -0.000000 0.000000
474
root 9.446922 30.773369 9.082122 175.927972 -91.908763 -119.493525
Spine 7.725514 -3.497230 -2.513236
Head -50.709746 -2.844967 8.996616
LeftShoulder -24.143746 57.259969 3.705981
LeftArm 27.432406 14.448070 -69.525737
LeftForeArm 23.695981 0.000000 -6.587179
LeftHand 2.811942 -0.000000 -19.967164
LeftHandThumb1 -26.253704 0.000000 33.147579
RightShoulder -5.179603 -22.963089 -20.590764
RightArm -10.487329 -20.325515 84.473704
RightForeArm -19.931046 -0.000000 -4.157853
RightHand 4.946144 0.000000 14.007359
RightHandThumb1 -24.326973 -0.000000 -32.862282
LeftUpLeg -84.827947 -2.897497 5.709438
LeftLeg 36.258605 -0.000000 -0.000000
LeftFoot -12.527286 7.431308 -17.442898
LeftToeBase -8.324692 -0.000000 0.000000
RightUpLeg -86.127667 2.290541 -5.780951
RightLeg 35.377182 -0.000000 -0.000000
RightFoot -15.805906 -11.135901 8.158459
RightToeBase -6.331623 -0.000000 0.000000
475
root 9.485479 30.681952 9.069456 176.124291 -91.835293 -119.476656
Spine 8.134335 -3.232590 -2.497258
Head -51.256955 -2.980298 9.028326
LeftShoulder -25.610606 58.726070 2.909622
LeftArm 26.999931 12.841638 -70.672520
LeftForeArm 22.644520 -0.000000 -6.686119
LeftHand 2.813427 -0.000000 -19.474875
LeftHandThumb1 -26.253704 0.000000 33.147579
RightShoulder -5.323168 -23.979294 -21.192289
RightArm -11.401736 -19.653389 85.418172
RightForeArm -19.364196 -0.000000 -4.716346
RightHand 5.239492 -0.000000 14.134111
RightHandThumb1 -24.326973 -0.000000 -32.862282
LeftUpLeg -85.576515 -2.731794 5.607131
LeftLeg 37.236652 -0.000000 -0.000000
LeftFoot -12.944568 7.286852 -17.334116
LeftToeBase -8.274783 -0.000000 0.000000
RightUpLeg -86.857210 2.327686 -5.728522
RightLeg 36.232026 -0.000000 -0.000000
RightFoot -16.163324 -10.770418 8.192139
RightToeBase -6.399141 -0.000000 0.000000
476
root 9.520814 30.590629 9.054472 176.764630 -91.743506 -119.956190
Spine 8.541047 -2.962770 -2.480718
Head -51.778838 -3.112122 9.071578
LeftShoulder -26.943600 59.830894 2.274491
LeftArm 26.544729 11.263234 -71.824458
LeftForeArm 21.656685 0.000000 -7.000439
LeftHand 2.903645 -0.000000 -18.762322
LeftHandThumb1 -26.253704 0.000000 33.147579
RightShoulder -5.379414 -25.073828 -21.804651
RightArm -12.058303 -19.130008 86.369377
RightForeArm -18.512622 -0.000000 -5.213347
RightHand 5.507171 -0.000000 14.208481
RightHandThumb1 -24.326973 -0.000000 -32.862282
LeftUpLeg -86.272225 -2.544357 5.501925
LeftLeg 38.221654 -0.000000 -0.000000
LeftFoot -13.366256 7.126780 -17.212261
LeftToeBase -8.307138 -0.000000 0.000000
RightUpLeg -87.503676 2.390883 -5.650585
RightLeg 37.022596 -0.000000 -0.000000
RightFoot -16.476003 -10.485188 8.243742
RightToeBase -6.577698 -0.000000 0.000000
477
root 9.549132 30.506516 9.041190 177.828891 -91.636730 -120.872198
Spine 8.970262 -2.730758 -2.437856
Head -52.328868 -3.182965 9.074654
LeftShoulder -28.202347 60.522162 1.599689
LeftArm 26.025727 9.237042 -73.048428
LeftForeArm 21.360668 -0.000000 -7.410339
LeftHand 2.927330 -0.000000 -18.070093
LeftHandThumb1 -26.253704 0.000000 33.147579
RightShoulder -5.423326 -26.111630 -22.329674
RightArm -12.520275 -18.503420 87.149964
RightForeArm -17.505983 -0.000000 -5.576830
RightHand 5.769357 -0.000000 14.231007
RightHandThumb1 -24.326973 -0.000000 -32.862282
LeftUpLeg -86.906024 -2.343094 5.380243
LeftLeg 39.114616 -0.000000 -0.000000
LeftFoot -13.786656 6.980990 -17.106070
LeftToeBase -8.208150 -0.000000 0.000000
RightUpLeg -88.089898 2.461282 -5.546246
RightLeg 37.750373 -0.000000 -0.000000
RightFoot -16.804560 -10.249854 8.359988
RightToeBase -6.536644 -0.000000 0.000000
478
root 9.571754 30.427830 9.030008 180.464422 -91.567028 -123.324013
Spine 9.359946 -2.579667 -2.301001
Head -52.911991 -3.225989 9.010097
LeftShoulder -29.520592 61.152098 0.641528
LeftArm 25.738506 7.668339 -73.905103
LeftForeArm 20.924597 -0.000000 -7.645376
LeftHand 2.907094 -0.000000 -17.480435
LeftHandThumb1 -26.253704 0.000000 33.147579
RightShoulder -5.483861 -26.991026 -22.813297
RightArm -12.891535 -17.909004 87.853580
RightForeArm -16.530012 0.000000 -5.864669
RightHand 5.931645 0.000000 14.242046
RightHandThumb1 -24.326973 -0.000000 -32.862282
LeftUpLeg -87.519695 -2.186507 5.295704
LeftLeg 39.879707 -0.000000 -0.000000
LeftFoot -14.250278 6.888037 -17.047730
LeftToeBase -7.913699 -0.000000 0.000000
RightUpLeg -88.661708 2.462770 -5.333244
RightLeg 38.436853 -0.000000 -0.000000
RightFoot -17.170515 -10.072588 8.449436
RightToeBase -6.532055 -0.000000 0.000000
